<svg xmlns="http://www.w3.org/2000/svg" viewBox="0 0 248.13 244.16"><defs><style>.cls-1{fill:#6636ce;}.cls-2{fill:#ffc043;}.cls-3{fill:#ffa840;}.cls-4{fill:#ff833e;}.cls-5{fill:#ff6224;}.cls-6{fill:#8f78ff;}.cls-7{fill:#c44a20;}</style></defs><title>Asset 2</title><g id="Layer_2" data-name="Layer 2"><g id="Layer_1-2" data-name="Layer 1"><g id="OBJECTS"><path class="cls-1" d="M174.15,59.79a10,10,0,0,1-6.26-2l5.71-7.44c.56.25,4.57.14,13.06-5.55,6.29-4.22,12.83-10.07,16.28-14.56,2.89-3.77,4.43-7.84,4.32-11.46a9.42,9.42,0,0,0-3.65-7.5l5.71-7.44a18.8,18.8,0,0,1,7.32,14.68c.16,5.86-2,11.88-6.27,17.43s-12,12.41-19.34,17.2C184.26,57.57,178.62,59.79,174.15,59.79Z"/><path class="cls-2" d="M221.07,70,142.36,9.56l-39.69,8.19L0,151.4l120.73,92.74L223.4,110.48Zm-60-3.34a10.37,10.37,0,1,1,14.54-1.9A10.36,10.36,0,0,1,161.06,66.68Z"/><path class="cls-3" d="M181.86,39.89l-8,10.46a10.36,10.36,0,0,1-12.64,16.42l-100.81,131h0l60.37,46.37L223.4,110.48,221.07,70Z"/><rect class="cls-4" x="58.13" y="117.14" width="11.43" height="152.23" transform="translate(-128.31 126.15) rotate(-52.47)"/><rect class="cls-5" x="88.31" y="178.39" width="11.43" height="76.12" transform="translate(-134.9 159.15) rotate(-52.47)"/><path class="cls-5" d="M177.73,45a17,17,0,1,0,3.13,23.85A17,17,0,0,0,177.73,45ZM161.06,66.68a10.37,10.37,0,1,1,14.54-1.9A10.36,10.36,0,0,1,161.06,66.68Z"/><path class="cls-1" d="M167.89,57.8C163,54,162.5,46.12,166.39,34.24c2.74-8.34,7.41-17.63,11.63-23.13S187.55,1.92,193.25.56a18.79,18.79,0,0,1,16.07,3.29l-5.71,7.44a9.46,9.46,0,0,0-8.19-1.6c-3.53.84-7.07,3.37-10,7.14-3.45,4.49-7.41,12.31-9.87,19.48-3.31,9.67-2.38,13.57-2,14.08Z"/><path class="cls-6" d="M212.05,15.41a1.18,1.18,0,0,1-1.15-.95,12.64,12.64,0,0,0-4.77-7.78,1.17,1.17,0,0,1,1.43-1.86A15,15,0,0,1,213.2,14a1.17,1.17,0,0,1-.92,1.38Z"/><path class="cls-6" d="M173.27,29.55a1.12,1.12,0,0,1-.44-.09,1.17,1.17,0,0,1-.64-1.53,76.81,76.81,0,0,1,9-16.5c7.52-9.79,18.6-12.57,26.36-6.61a1.17,1.17,0,0,1,.22,1.64,1.18,1.18,0,0,1-1.65.22c-6.67-5.13-16.38-2.53-23.07,6.18a74,74,0,0,0-8.7,16A1.19,1.19,0,0,1,173.27,29.55Z"/><rect class="cls-2" x="42.54" y="9.28" width="65.4" height="73.81" transform="translate(16.89 112.43) rotate(-80.17)"/><rect class="cls-4" x="14.41" y="32.96" width="65.4" height="16.7" transform="translate(-1.64 80.66) rotate(-80.17)"/><rect class="cls-5" x="27.91" y="49" width="32.84" height="16.7" transform="translate(-19.75 91.23) rotate(-80.17)"/><rect class="cls-3" x="170.28" y="107.41" width="65.4" height="73.81" transform="translate(-41.8 98.36) rotate(-24.78)"/><rect class="cls-4" x="182.24" y="161.9" width="65.4" height="16.7" transform="translate(-51.56 105.76) rotate(-24.78)"/><rect class="cls-5" x="183.75" y="168.75" width="32.7" height="16.7" transform="translate(-55.8 100.17) rotate(-24.78)"/><rect class="cls-5" x="27.63" y="115.53" width="1.17" height="2.93" transform="translate(-81.76 68.11) rotate(-52.48)"/><path class="cls-5" d="M140.46,204l-4.65-3.57.72-.93,4.64,3.57Zm-9.29-7.13-4.64-3.57.71-.93,4.64,3.56Zm-9.29-7.14-4.64-3.56.71-.93,4.65,3.56Zm-9.28-7.13L108,179l.72-.93,4.64,3.57Zm-9.29-7.13-4.64-3.57.71-.93L104,174.5ZM94,168.29l-4.64-3.57.71-.93,4.65,3.57Zm-9.28-7.13-4.65-3.57.72-.93,4.64,3.57ZM75.45,154l-4.64-3.57.71-.93,4.64,3.57Zm-9.29-7.14-4.64-3.56.71-.93L66.88,146Zm-9.28-7.13-4.65-3.57.72-.93,4.64,3.57Zm-9.29-7.13L43,129.06l.71-.93,4.65,3.57Zm-9.29-7.14-4.64-3.56.71-.93L39,124.56Z"/><rect class="cls-5" x="146.03" y="206.49" width="1.17" height="2.93" transform="translate(-107.62 197.58) rotate(-52.48)"/><path class="cls-7" d="M180.86,68.82A17,17,0,0,0,177.73,45l-4,5.27h0a10.37,10.37,0,1,1-12.63,16.44h0L157,72A17,17,0,0,0,180.86,68.82Z"/><path class="cls-5" d="M58.79,75.83l-.93-.72,3.57-4.65.93.72Zm7.14-9.3L65,65.81l3.57-4.64.93.71Zm7.15-9.3-.93-.71,3.57-4.65.93.71Zm7.14-9.3-.93-.71,3.57-4.65.93.71Zm7.14-9.3-.93-.71L90,33.27l.93.72Zm7.14-9.29-.93-.72L97.14,24l.93.72Zm7.14-9.3-.93-.72,1.49-1.93.93.71Z"/><path class="cls-5" d="M178.87,169.42l-.93-.72,3.57-4.64.93.71Zm7.14-9.3-.93-.71,3.57-4.65.93.71Zm7.14-9.3-.93-.71,3.57-4.65.93.71Zm7.14-9.3-.93-.71,3.57-4.65.93.72Zm7.14-9.29-.93-.72,3.57-4.65.93.72Zm7.15-9.3-.93-.72,3.57-4.64.93.71Zm7.14-9.3-.93-.71,2.14-2.79.93.71Z"/></g></g></g></svg>